<svg xmlns="http://www.w3.org/2000/svg" viewBox="0 0 24 24" aria-hidden="true">
  <path fill="currentColor" d="M12 .5A12 12 0 0 0 8.2 23.9c.6.1.8-.3.8-.6v-2.2c-3.3.7-4-1.4-4-1.4-.5-1.3-1.2-1.7-1.2-1.7-1-.7.1-.7.1-.7 1.1.1 1.7 1.1 1.7 1.1 1 .1 1.7.8 2 1.5.9.1 1.7.1 2.5-.2.1-.7.4-1.1.7-1.4-2.6-.3-5.4-1.3-5.4-6a4.7 4.7 0 0 1 1.2-3.3c-.1-.3-.5-1.6.1-3.2 0 0 1-.3 3.3 1.2a11.4 11.4 0 0 1 6 0c2.2-1.5 3.3-1.2 3.3-1.2.6 1.6.2 2.9.1 3.2a4.7 4.7 0 0 1 1.2 3.3c0 4.7-2.8 5.7-5.4 6 .4.4.8 1 .8 2v3c0 .3.2.7.8.6A12 12 0 0 0 12 .5Z"/>
</svg>
